<?xml version="1.0" encoding="UTF-8"?><svg id="Layer_1" xmlns="http://www.w3.org/2000/svg" viewBox="0 0 59.395 59.394"><defs><style>.cls-1{fill:#c1c6dd;stroke-width:0px;}</style></defs><g id="FxTewI"><path class="cls-1" d="M34.267,55.796c-.43,1.756-1.685,3.412-4.259,3.586-2.21.15-3.926-1.049-4.819-3.056-.234-.525-.835-1.007-1.383-1.252-2.636-1.184-5.3-2.31-7.984-3.381-.506-.202-1.229-.257-1.712-.05-1.966.84-4.085.55-5.515-.9-1.419-1.44-1.679-3.549-.81-5.529.193-.441.135-1.109-.048-1.579-1.09-2.782-2.232-5.544-3.408-8.291-.182-.426-.557-.912-.962-1.078C1.168,33.364-.01,31.816,0,29.659c.01-2.137,1.172-3.618,3.44-4.542.374-.152.721-.593.893-.984,1.225-2.781,2.425-5.575,3.569-8.391.174-.429.169-1.06-.015-1.484-.915-2.112-.633-4.144.886-5.635,1.464-1.436,3.387-1.641,5.516-.727.447.192,1.127.099,1.609-.091,2.684-1.057,5.352-2.156,7.994-3.314.506-.222,1.062-.694,1.262-1.186C25.991,1.249,27.585.011,29.655,0c2.097-.011,3.826,1.151,4.475,3.257.256.832.723,1.036,1.415,1.303,2.693,1.039,5.346,2.182,8.035,3.229.432.168,1.055.215,1.456.029,2.083-.965,4.133-.718,5.643.79,1.45,1.448,1.712,3.481.866,5.517-.203.487-.116,1.215.089,1.732,1.086,2.729,2.23,5.436,3.413,8.125.204.464.617.984,1.062,1.168,2.119.875,3.321,2.505,3.285,4.669-.034,2.072-1.237,3.541-3.42,4.389-.447.174-.868.705-1.069,1.171-1.164,2.695-2.284,5.411-3.352,8.146-.188.482-.241,1.164-.048,1.624.888,2.123.655,4.077-.792,5.519-1.515,1.51-3.447,1.744-5.65.804-.412-.176-1.047-.113-1.474.076-3.001,1.326-5.975,2.714-9.322,4.249ZM53.616,34.429c-4.641-3.05-4.747-5.729-.75-9.065.198-.165.413-.528.363-.738-.722-3.022-1.764-5.908-3.637-8.392-4.426,1.407-7.841-1.522-6.412-6.754-2.925-1.189-5.892-2.395-8.841-3.594-1.963,4.296-6.849,4.77-9.229.292-3.198.655-6.191,1.797-8.842,3.729,1.61,3.652-1.166,7.865-6.779,6.307-1.222,2.919-2.463,5.883-3.677,8.783,4.593,2.893,4.704,5.702.719,9.029-.198.166-.417.527-.367.736.715,3.024,1.752,5.912,3.642,8.397,4.013-1.429,8.112,1.39,6.506,6.52,2.427,1.731,5.155,2.812,8.053,3.468.324.073.912-.273,1.129-.593,2.335-3.448,6.097-3.415,8.469.079.196.289.731.601,1.022.533,2.935-.685,5.717-1.744,8.141-3.542-1.144-4.715,1.15-7.318,5.828-6.799.372.041,1.009-.289,1.164-.617,1.226-2.593,2.364-5.227,3.498-7.778ZM54.804,32.504c1.574-.031,2.769-1.24,2.771-2.805.003-1.624-1.258-2.839-2.917-2.81-1.607.028-2.751,1.193-2.752,2.804-.001,1.668,1.21,2.844,2.897,2.811ZM32.505,54.697c-.013-1.615-1.157-2.768-2.767-2.79-1.672-.023-2.864,1.174-2.847,2.859.016,1.589,1.196,2.789,2.764,2.81,1.623.022,2.863-1.231,2.851-2.878ZM32.504,4.66c0-1.649-1.248-2.877-2.883-2.838-1.567.037-2.729,1.245-2.731,2.837-.002,1.628,1.116,2.782,2.73,2.819,1.683.039,2.885-1.135,2.884-2.818ZM4.594,32.504c1.693.03,2.889-1.139,2.884-2.818-.005-1.622-1.136-2.771-2.752-2.797-1.661-.026-2.909,1.185-2.903,2.817.005,1.571,1.194,2.77,2.772,2.797ZM44.634,47.404c.003,1.612,1.187,2.816,2.764,2.811,1.538-.005,2.822-1.262,2.841-2.782.02-1.578-1.337-2.94-2.887-2.9-1.569.041-2.721,1.259-2.718,2.872ZM14.761,47.371c-.009-1.621-1.217-2.86-2.767-2.838-1.537.022-2.81,1.315-2.81,2.856,0,1.562,1.262,2.827,2.82,2.826,1.582-.001,2.766-1.223,2.757-2.844ZM14.76,11.974c-.009-1.611-1.191-2.823-2.747-2.817-1.607.006-2.89,1.314-2.856,2.912.033,1.559,1.258,2.706,2.875,2.691,1.653-.014,2.737-1.122,2.728-2.787ZM47.324,14.761c1.627.029,2.86-1.126,2.891-2.708.031-1.542-1.219-2.86-2.746-2.896-1.587-.037-2.8,1.141-2.835,2.754-.036,1.686,1.034,2.82,2.689,2.85Z"/><path class="cls-1" d="M43.633,26.223c3.994.644,5.836,2.852,5.843,6.843.006,3.64.054,3.078-3.159,3.105-2.646.022-5.293.005-7.748.005.142,1.954.28,3.804.408,5.654.066.95-.337,1.381-1.342,1.376-5.408-.027-10.816-.03-16.225.002-1.098.006-1.484-.512-1.408-1.494.141-1.801.317-3.599.492-5.538-2.581,0-5.369,0-8.156,0-2.795,0-2.764,0-2.793-2.863-.03-2.899,1.009-5.179,3.67-6.521.711-.359,1.529-.504,2.437-.791-1.375-1.551-2.587-3.24-1.981-5.312.379-1.294,1.144-2.659,2.133-3.554,2.135-1.932,5.486-1.557,7.443.547,2.199,2.366,2.016,5.291-.672,8.372.643.169,1.187.312,1.726.454,2.657-4.669,8.124-4.674,10.67-.056.568-.066,1.161-.135,1.986-.23-1.603-1.535-2.758-3.253-2.234-5.339.327-1.302,1.093-2.677,2.062-3.598,2.072-1.969,5.264-1.71,7.333.3,2.427,2.359,2.299,5.157-.484,8.639ZM37.261,41.513c.36-4.403-1.361-6.31-5.521-6.312-1.529,0-3.058-.005-4.588.001-3.727.015-5.721,2.565-4.89,6.311h14.999ZM11.694,34.569c2.567,0,5.064-.168,7.529.046,2.557.222,4.779-.682,6.855-1.364-.603-1.154-1.511-2.248-1.725-3.465-.249-1.415-1.039-1.582-2.079-1.609-1.678-.044-3.359-.014-5.038-.014-4.323,0-6.001,1.86-5.541,6.406ZM47.696,34.627c.388-3.873-.976-6.164-3.866-6.397-2.377-.192-4.784-.084-7.174-.007-.423.014-1.013.44-1.212.834-.711,1.409-1.288,2.887-1.874,4.244,4.311,2.314,9.247.857,14.125,1.325ZM40.249,25.37c2.025-.011,3.794-1.844,3.735-3.87-.058-1.995-1.795-3.691-3.766-3.678-1.992.013-3.802,1.878-3.761,3.876.039,1.934,1.844,3.682,3.792,3.672ZM33.506,28.653c.018-2.086-1.722-3.847-3.766-3.813-1.985.033-3.693,1.749-3.719,3.736-.026,2.043,1.754,3.83,3.794,3.809,2.002-.021,3.674-1.711,3.691-3.732ZM22.987,21.547c-.019-2.014-1.694-3.699-3.7-3.723-2.055-.025-3.761,1.713-3.742,3.812.018,2.022,1.684,3.712,3.678,3.731,2.044.02,3.784-1.747,3.764-3.82Z"/></g></svg>