<?xml version="1.0" encoding="UTF-8"?><svg id="Layer_1" xmlns="http://www.w3.org/2000/svg" viewBox="0 0 40.22 38.289"><defs><style>.cls-1{fill:#c1c6dd;stroke-width:0px;}</style></defs><path class="cls-1" d="M32.23,38.289c-.056,0-.111-.009-.165-.028l-11.954-4.179-11.953,4.179c-.154.053-.325.029-.459-.068-.133-.096-.21-.251-.206-.416l.279-12.66L.103,15.044c-.1-.13-.129-.301-.078-.457.051-.156.175-.277.332-.325l12.129-3.647L19.699.202c.188-.27.635-.27.822,0l7.214,10.413,12.128,3.647c.157.047.281.168.332.325.051.156.021.327-.078.457l-7.668,10.074.28,12.66c.004.164-.073.319-.206.416-.087.063-.189.096-.294.096ZM20.11,33.052c.056,0,.111.009.165.028l11.438,3.999-.269-12.113c-.002-.113.033-.224.103-.314l7.337-9.64-11.604-3.49c-.108-.033-.203-.101-.268-.194L20.11,1.365l-6.902,9.963c-.064.093-.159.162-.268.194L1.335,15.012l7.338,9.64c.069.09.104.201.103.314l-.268,12.113,11.438-3.999c.054-.019.109-.028.165-.028Z"/></svg>