<?xml version="1.0" encoding="UTF-8"?><svg id="Layer_1" xmlns="http://www.w3.org/2000/svg" viewBox="0 0 49.546 45.218"><defs><style>.cls-1{fill:#c1c6dd;stroke-width:0px;}</style></defs><g id="oDRQWb"><path class="cls-1" d="M9.925,24.151c-.127-2.909-1.095-5.391-3.083-7.235-1.851-1.717-4.061-3.046-6.081-4.587-.356-.272-.812-.79-.757-1.117.056-.335.677-.811,1.06-.819,5.933-.135,11.417,1.086,15.437,5.872,1.261,1.502,2.114,3.348,3.341,5.341-.357-1.236-.562-2.214-.919-3.132-1.965-5.061-5.705-8.632-9.995-11.708-1.358-.973-2.849-1.76-4.213-2.724-.457-.323-.709-.936-1.055-1.416.554-.221,1.126-.673,1.658-.629,7.098.581,13.44,3.077,18.927,7.66.492.411.977.832,1.499,1.277,1.216-1.511,2.319-3.006,3.55-4.386,2.775-3.11,5.99-5.564,10.204-6.401.318-.063.661-.192.959-.131.583.119,1.142.35,1.712.535-.23.513-.371,1.094-.705,1.527-1.837,2.378-3.721,4.719-5.589,7.073.104.121.208.242.312.362.436-.199.874-.392,1.307-.598,3.365-1.601,6.94-2.373,10.631-2.621.459-.031.947.352,1.421.543-.304.447-.505,1.093-.927,1.31-3.698,1.905-6.915,4.362-9.316,7.799-1.7,2.433-2.804,5.095-3.156,8.288,1.336,0,2.528-.004,3.719,0,1.831.007,1.927.096,1.928,1.86.003,5.768-.028,11.537.022,17.305.011,1.309-.39,1.823-1.752,1.818-10.513-.038-21.027-.019-31.54-.023-1.681,0-1.867-.175-1.87-1.824-.012-5.675-.012-11.351-.01-17.026,0-2.059.011-2.057,2.14-2.105.319-.007.638-.048,1.142-.088ZM39.777,43.233v-17.068H8.654v17.068h31.123ZM25.693,23.9c.739-2.038,1.35-3.936,2.127-5.764.336-.791.321-1.309-.199-1.997-3.238-4.293-7.315-7.512-12.258-9.6-1.702-.719-3.485-1.246-5.23-1.86,6.225,5.112,11.542,10.587,11.898,19.221h3.663ZM43.058,9.246c-7.215.912-14.551,8.389-14.743,14.601h5.812c.837-6.07,3.967-10.684,8.931-14.601ZM17.911,23.899c-1.278-6.333-6.099-10.629-12.654-11.238,3.828,2.942,6.351,6.477,6.741,11.238h5.914ZM38.207,2.484c-4.901,2.04-8.07,5.715-10.83,9.888.754.919,1.454,1.774,2.391,2.916,2.852-4.327,5.594-8.488,8.439-12.804Z"/></g></svg>