<?xml version="1.0" encoding="utf-8"?>
<!-- Generator: Adobe Illustrator 24.3.0, SVG Export Plug-In . SVG Version: 6.00 Build 0)  -->
<!DOCTYPE svg PUBLIC "-//W3C//DTD SVG 1.1//EN" "http://www.w3.org/Graphics/SVG/1.1/DTD/svg11.dtd" [
	<!ENTITY ns_extend "http://ns.adobe.com/Extensibility/1.0/">
	<!ENTITY ns_ai "http://ns.adobe.com/AdobeIllustrator/10.0/">
	<!ENTITY ns_graphs "http://ns.adobe.com/Graphs/1.0/">
	<!ENTITY ns_vars "http://ns.adobe.com/Variables/1.0/">
	<!ENTITY ns_imrep "http://ns.adobe.com/ImageReplacement/1.0/">
	<!ENTITY ns_sfw "http://ns.adobe.com/SaveForWeb/1.0/">
	<!ENTITY ns_custom "http://ns.adobe.com/GenericCustomNamespace/1.0/">
	<!ENTITY ns_adobe_xpath "http://ns.adobe.com/XPath/1.0/">
]>
<svg version="1.1" id="Layer_1" xmlns:x="&ns_extend;" xmlns:i="&ns_ai;" xmlns:graph="&ns_graphs;"
	 xmlns="http://www.w3.org/2000/svg" xmlns:xlink="http://www.w3.org/1999/xlink" x="0px" y="0px" viewBox="0 0 24 24"
	 style="enable-background:new 0 0 24 24;" xml:space="preserve">
<style type="text/css">
	.st0{fill:#231F20;}
</style>
<metadata>
	<sfw  xmlns="&ns_sfw;">
		<slices></slices>
		<sliceSourceBounds  bottomLeftOrigin="true" height="23" width="21" x="1.5" y="0.5"></sliceSourceBounds>
	</sfw>
</metadata>
<g transform="translate(-232 -578)">
	<g transform="translate(232 578)">
		<path class="st0" d="M12,23.5c-1.5,0-2.8-0.6-3.8-1.7c-0.1,0.3-0.3,0.6-0.6,0.8c-1.1,1.2-3,1.2-4.1,0l0,0l-1.1-1.1
			c-1.2-1.2-1.2-3.1,0-4.2c0.4-0.4,0.8-0.6,1.3-0.8c0-3,1.7-5.8,4.3-7.2C7.7,8.9,7.4,8.4,7.2,8C6,7.7,5.3,6.5,5.6,5.3
			c0.1-0.4,0.3-0.8,0.6-1.1c0.3-0.3,0.7-0.5,1.1-0.6C8,1.7,9.9,0.5,12,0.5l0,0c2.1,0,3.9,1.2,4.8,3.1c1.2,0.3,1.9,1.5,1.7,2.7
			c-0.1,0.4-0.3,0.8-0.6,1.1c-0.3,0.3-0.7,0.5-1.1,0.6c-0.2,0.5-0.5,0.9-0.8,1.3c2.6,1.5,4.3,4.2,4.3,7.2c0.5,0.1,1,0.4,1.3,0.8
			c1.2,1.2,1.2,3.1,0,4.2l-1.1,1.1c-1.1,1.2-3,1.2-4.1,0l0,0c-0.2-0.2-0.4-0.5-0.6-0.8C14.8,22.9,13.4,23.5,12,23.5z M19.5,17.8
			c-0.4,0-0.8,0.2-1.1,0.5l-1.1,1.1c-0.6,0.6-0.6,1.7,0,2.3c0.6,0.6,1.6,0.6,2.3,0l0,0l1.1-1.1c0.6-0.6,0.6-1.7,0-2.3
			C20.4,17.9,20,17.8,19.5,17.8z M15.9,18.7H8.1c0.2,2.1,2.1,3.7,4.3,3.5C14.2,22,15.7,20.5,15.9,18.7z M4.4,17.8
			c-0.4,0-0.8,0.2-1.1,0.5c-0.6,0.6-0.6,1.7,0,2.3l1.1,1.1c0.6,0.6,1.6,0.6,2.3,0l0,0c0.6-0.6,0.6-1.7,0-2.3l-1.1-1.1
			C5.3,17.9,4.9,17.8,4.4,17.8z M16.3,12.9v1.5h0.9v3.1l0.2-0.2c0.4-0.4,0.9-0.7,1.5-0.8c-0.1-2.7-1.6-5.1-4-6.2
			c-1.8,1.2-4.1,1.2-5.8,0c-1.2,0.6-2.2,1.4-2.9,2.5S5.1,15.2,5,16.6c0.6,0.1,1.1,0.4,1.5,0.8l0.2,0.2v-3.1h0.9V13H9v1.5h6V13
			L16.3,12.9z M8.1,15.8v1.6h7.8v-1.6C15.9,15.8,8.1,15.8,8.1,15.8z M12,1.8c-1.7,0-3.1,1.1-3.7,2.6L8.2,4.9H7.7
			C7.5,4.9,7.2,5,7.1,5.2c-0.3,0.3-0.3,0.9,0,1.2c0.2,0.2,0.4,0.2,0.6,0.3h0.5l0.2,0.4c0.7,2,2.9,3.1,4.9,2.4
			c1.1-0.4,2.1-1.3,2.4-2.4l0.2-0.4h0.5c0.2,0,0.4-0.1,0.6-0.3c0.3-0.3,0.3-0.9,0-1.2C16.8,5,16.6,5,16.4,4.9h-0.5l-0.2-0.4
			c-0.3-0.8-0.8-1.5-1.5-2c0,0.1,0,0.1,0,0.2c0,1.2-1,2.2-2.2,2.2s-2.2-1-2.2-2.2l0,0h1.3c0,0.2,0.1,0.5,0.3,0.6
			c0.2,0.2,0.4,0.3,0.6,0.3c0.5,0,0.9-0.4,0.9-0.9C12.9,2.2,12.5,1.9,12,1.8L12,1.8z"/>
		<path class="st0" d="M12.5,8.5c0.9,0,1.6-0.5,2-1.3l-1.1-0.7c-0.2,0.4-0.5,0.6-0.9,0.6s-0.7-0.2-0.9-0.6l-1.1,0.7
			C10.9,8,11.6,8.5,12.5,8.5z"/>
	</g>
</g>
</svg>
