<?xml version="1.0" encoding="UTF-8"?><svg id="Layer_1" xmlns="http://www.w3.org/2000/svg" viewBox="0 0 41.93 41.937"><defs><style>.cls-1{fill:#c1c6dd;stroke-width:0px;}.cls-2{fill:none;stroke:#c1c6dd;stroke-miterlimit:10;}</style></defs><g id="fb6ajB"><path class="cls-2" d="M31.678,41.437H10.254c-.258-.052-.514-.111-.773-.154-5.133-.859-8.967-5.35-8.975-10.545-.01-6.515-.006-13.03.004-19.545,0-.569.056-1.145.151-1.706C1.541,4.291,6.011.508,11.273.503c6.46-.006,12.921-.004,19.381.003.518,0,1.045.009,1.551.103,4.507.836,7.473,3.433,8.83,7.825.183.591.265,1.213.394,1.821v21.427c-.026.087-.068.172-.077.261-.469,4.229-3.634,7.953-7.738,9.078-.636.174-1.291.279-1.937.415Z"/><path class="cls-1" d="M19.768,19.771v-1.21c0-2.358,0-4.715,0-7.073,0-.782.481-1.308,1.19-1.311.713-.003,1.204.522,1.204,1.298.002,2.744,0,5.487,0,8.296h.43c2.61,0,5.22,0,7.83,0,.81,0,1.338.482,1.332,1.21-.006.709-.531,1.184-1.318,1.185-2.597.001-5.194,0-7.79,0h-.484v.451c0,2.637.002,5.274-.002,7.912,0,.647-.433,1.152-1.03,1.227-.599.076-1.147-.275-1.314-.862-.046-.162-.047-.341-.047-.512-.003-2.571-.002-5.141-.002-7.712v-.503h-.471c-2.637,0-5.274.002-7.91-.002-.622-.001-1.121-.43-1.204-1.011-.088-.611.278-1.181.878-1.343.151-.04.316-.039.474-.039,2.583-.002,5.167-.002,7.75-.002h.484Z"/></g></svg>