<?xml version="1.0" encoding="utf-8"?>
<!-- Generator: Adobe Illustrator 23.0.2, SVG Export Plug-In . SVG Version: 6.00 Build 0)  -->
<svg version="1.1" id="Layer_1" xmlns="http://www.w3.org/2000/svg" xmlns:xlink="http://www.w3.org/1999/xlink" x="0px" y="0px"
	 viewBox="0 0 24 24" style="enable-background:new 0 0 24 24;" xml:space="preserve">
<g>
	<path d="M23.1,6H0.9C0.4,6,0.1,5.6,0.1,5.1V4.8C0.1,4.4,0.4,4,0.9,4h22.3c0.4,0,0.8,0.4,0.8,0.8v0.3C23.9,5.6,23.6,6,23.1,6z
		 M23.1,13H0.9c-0.4,0-0.8-0.4-0.8-0.8v-0.3c0-0.4,0.4-0.8,0.8-0.8h22.3c0.4,0,0.8,0.4,0.8,0.8v0.3C23.9,12.6,23.6,13,23.1,13z
		 M23.1,20H0.9c-0.4,0-0.8-0.4-0.8-0.8v-0.3c0-0.4,0.4-0.8,0.8-0.8h22.3c0.4,0,0.8,0.4,0.8,0.8v0.3C23.9,19.6,23.6,20,23.1,20z"/>
</g>
</svg>
